<svg xmlns="http://www.w3.org/2000/svg" width="1200" height="720" viewBox="0 0 1200 720" role="img" aria-labelledby="title description">
  <title id="title">重构现有 Local DB 中文仪表盘 UI。项目是本地优先的 PostgreSQL 知识与信号工作台，R… draft style preview</title>
  <desc id="description">Learning Platform Friendly · project first-viewport draft</desc>
  <defs>
    <marker id="arrow" viewBox="0 0 10 10" refX="8" refY="5" markerWidth="5" markerHeight="5" orient="auto-start-reverse"><path d="M 0 0 L 10 5 L 0 10 z" fill="#4F46E5"/></marker>
    <pattern id="grid" width="24" height="24" patternUnits="userSpaceOnUse"><path d="M 24 0 L 0 0 0 24" fill="none" stroke="#D7DCF2" stroke-width="1" opacity="0.18"/></pattern>
  </defs>
  <rect width="1200" height="720" fill="#F5F7FF"/>
  <rect width="1200" height="720" fill="url(#grid)"/>
  <text x="42" y="45" fill="#6B7280" font-family="Inter, ui-sans-serif, system-ui, sans-serif" font-size="11" font-weight="750" text-anchor="start">AI UI STYLE DIRECTION</text>
  <text x="1158" y="45" fill="#4F46E5" font-family="Inter, ui-sans-serif, system-ui, sans-serif" font-size="11" font-weight="750" text-anchor="end">DRAFT / WIREFRAME</text>
  <text x="42" y="92" fill="#20233A" font-family="Inter, ui-sans-serif, system-ui, sans-serif" font-size="30" font-weight="780" text-anchor="start">重构现有 Local DB 中文仪表盘 UI。项目是本地优先的 PostgreSQL 知识与信号工作台，R…</text>
  <text x="42" y="124" fill="#6B7280" font-family="Inter, ui-sans-serif, system-ui, sans-serif" font-size="13" font-weight="450" text-anchor="start">Learning Platform Friendly · project first-viewport draft</text>
  <g transform="translate(40 160)">
    <rect x="0" y="0" width="1120" height="520" rx="20" fill="#FFFFFF" stroke="#D7DCF2" />
    <rect x="24" y="24" width="248" height="468" rx="16" fill="#E8ECFF" stroke="#D7DCF2" /><text x="48" y="62" fill="#20233A" font-family="Inter, ui-sans-serif, system-ui, sans-serif" font-size="12" font-weight="750" text-anchor="start">LEARNING</text><circle cx="148" cy="164" r="66" fill="none" stroke="#D7DCF2" stroke-width="16"/><path d="M148 98 A66 66 0 1 1 88 192" fill="none" stroke="#4F46E5" stroke-width="16" stroke-linecap="round"/><text x="148" y="171" fill="#20233A" font-family="Inter, ui-sans-serif, system-ui, sans-serif" font-size="24" font-weight="750" text-anchor="middle">72%</text><rect x="46" y="274" width="204" height="44" rx="10" fill="#FFFFFF" stroke="#D7DCF2" /><text x="66" y="302" fill="#20233A" font-family="Inter, ui-sans-serif, system-ui, sans-serif" font-size="12" font-weight="650" text-anchor="start">Current path</text><rect x="46" y="332" width="204" height="44" rx="10" fill="transparent" stroke="transparent" /><text x="66" y="360" fill="#6B7280" font-family="Inter, ui-sans-serif, system-ui, sans-serif" font-size="12" font-weight="500" text-anchor="start">Saved lessons</text><rect x="46" y="390" width="204" height="44" rx="10" fill="transparent" stroke="transparent" /><text x="66" y="418" fill="#6B7280" font-family="Inter, ui-sans-serif, system-ui, sans-serif" font-size="12" font-weight="500" text-anchor="start">Achievements</text><text x="310" y="66" fill="#20233A" font-family="Inter, ui-sans-serif, system-ui, sans-serif" font-size="28" font-weight="750" text-anchor="start">Continue learning</text><text x="310" y="98" fill="#6B7280" font-family="Inter, ui-sans-serif, system-ui, sans-serif" font-size="13" font-weight="450" text-anchor="start">Small steps, visible progress, friendly structure.</text><rect x="310" y="138" width="360" height="166" rx="16" fill="#4F46E5" stroke="#D7DCF2" opacity="0.9"/><text x="334" y="176" fill="#FFFFFF" font-family="Inter, ui-sans-serif, system-ui, sans-serif" font-size="10" font-weight="700" text-anchor="start">UP NEXT</text><line x1="334" y1="222" x2="548" y2="222" stroke="#FFFFFF" stroke-width="10" stroke-linecap="round" opacity="0.72"/><line x1="334" y1="254" x2="606" y2="254" stroke="#FFFFFF" stroke-width="7" stroke-linecap="round" opacity="0.48"/><rect x="696" y="138" width="360" height="166" rx="16" fill="#E8ECFF" stroke="#D7DCF2" /><text x="720" y="176" fill="#6B7280" font-family="Inter, ui-sans-serif, system-ui, sans-serif" font-size="10" font-weight="700" text-anchor="start">RECOMMENDED</text><line x1="720" y1="222" x2="934" y2="222" stroke="#20233A" stroke-width="10" stroke-linecap="round" opacity="0.72"/><line x1="720" y1="254" x2="992" y2="254" stroke="#6B7280" stroke-width="7" stroke-linecap="round" opacity="0.48"/><rect x="310" y="334" width="746" height="40" rx="10" fill="#FFFFFF" stroke="#D7DCF2" /><circle cx="334" cy="354" r="7" fill="#4F46E5"/><line x1="356" y1="354" x2="610" y2="354" stroke="#6B7280" stroke-width="7" stroke-linecap="round" opacity="0.5"/><rect x="310" y="386" width="746" height="40" rx="10" fill="#FFFFFF" stroke="#D7DCF2" /><circle cx="334" cy="406" r="7" fill="#D7DCF2"/><line x1="356" y1="406" x2="640" y2="406" stroke="#6B7280" stroke-width="7" stroke-linecap="round" opacity="0.5"/><rect x="310" y="438" width="746" height="40" rx="10" fill="#FFFFFF" stroke="#D7DCF2" /><circle cx="334" cy="458" r="7" fill="#D7DCF2"/><line x1="356" y1="458" x2="670" y2="458" stroke="#6B7280" stroke-width="7" stroke-linecap="round" opacity="0.5"/>
  </g>
</svg>
